<?xml version="1.0" standalone="no"?>
<!DOCTYPE svg PUBLIC "-//W3C//DTD SVG 20010904//EN"
 "http://www.w3.org/TR/2001/REC-SVG-20010904/DTD/svg10.dtd">
<svg version="1.0" xmlns="http://www.w3.org/2000/svg"
 width="668.000000pt" height="190.000000pt" viewBox="0 0 668.000000 190.000000"
 preserveAspectRatio="xMidYMid meet">

<g transform="translate(0.000000,190.000000) scale(0.100000,-0.100000)"
fill="#000000" stroke="none">
<path d="M965 1685 c-176 -34 -361 -155 -458 -303 -87 -130 -122 -247 -121
-397 1 -137 17 -202 77 -325 43 -89 64 -118 132 -186 70 -70 97 -89 186 -132
125 -60 176 -72 317 -72 127 0 224 23 327 75 142 72 276 216 331 355 25 65 27
74 13 95 -22 36 -260 315 -268 315 -4 0 -33 -31 -65 -70 -31 -38 -61 -70 -65
-70 -4 0 -29 27 -55 60 -54 69 -58 53 44 174 36 42 70 75 76 74 7 -2 90 -99
185 -216 142 -175 174 -210 182 -196 17 30 2 251 -23 329 -107 343 -461 556
-815 490z m276 -620 c84 -104 180 -224 214 -265 54 -67 105 -164 92 -176 -2
-3 -98 106 -212 241 -113 135 -210 245 -215 243 -4 -2 -96 -109 -205 -238
-108 -129 -206 -240 -217 -246 -46 -25 -88 14 -88 81 0 51 13 70 155 240 65
77 157 186 204 243 80 96 86 101 102 85 9 -10 85 -103 170 -208z"/>
<path d="M3295 1238 c-3 -7 -4 -101 -3 -208 3 -187 4 -195 23 -195 17 0 20 8
23 58 2 31 7 57 11 57 4 0 31 -27 60 -60 53 -60 86 -75 98 -44 4 11 -16 37
-62 84 l-67 67 55 44 c53 42 69 70 47 84 -13 8 -67 -25 -99 -59 -14 -14 -28
-26 -32 -26 -5 0 -10 46 -11 102 -3 89 -5 103 -21 106 -9 2 -19 -3 -22 -10z"/>
<path d="M3865 1238 c-3 -7 -4 -101 -3 -208 3 -187 4 -195 23 -195 19 0 20 7
20 205 0 187 -2 205 -18 208 -9 2 -19 -3 -22 -10z"/>
<path d="M5737 1243 c-4 -3 -7 -96 -7 -205 0 -168 2 -200 15 -204 8 -4 22 -1
30 6 12 10 15 46 15 195 0 101 -3 190 -6 199 -6 16 -35 22 -47 9z"/>
<path d="M6056 1235 c-3 -9 -6 -44 -6 -77 0 -47 -3 -58 -12 -50 -7 6 -29 13
-48 16 -72 13 -130 -53 -130 -149 0 -102 76 -166 161 -136 23 8 36 8 45 0 8
-6 21 -9 29 -5 13 5 15 34 13 208 -3 198 -3 203 -24 206 -13 2 -24 -4 -28 -13z
m-27 -179 c64 -68 13 -197 -67 -172 -29 10 -55 71 -48 114 6 42 41 82 71 82
12 0 31 -11 44 -24z"/>
<path d="M2037 1213 c-4 -3 -7 -89 -7 -190 0 -155 2 -185 15 -189 32 -12 45
15 45 92 l0 74 80 0 80 0 0 -69 c0 -82 6 -101 31 -101 27 0 30 24 27 215 l-3
170 -25 0 c-24 0 -25 -2 -28 -82 l-3 -83 -79 0 -80 0 0 69 c0 38 -3 76 -6 85
-6 16 -35 22 -47 9z"/>
<path d="M4714 1205 c-10 -25 4 -45 31 -45 21 0 25 5 25 30 0 25 -4 30 -25 30
-14 0 -28 -7 -31 -15z"/>
<path d="M4991 1198 c-15 -39 -63 -347 -56 -358 9 -14 42 -13 48 3 3 7 13 72
23 145 10 73 20 132 23 132 3 0 14 -28 24 -63 64 -220 67 -228 90 -225 19 3
27 22 62 140 37 123 55 169 55 142 1 -43 41 -269 49 -277 15 -15 41 0 41 24 0
39 -51 322 -61 341 -7 13 -19 18 -37 16 -25 -3 -29 -11 -69 -143 -22 -77 -44
-133 -47 -125 -3 8 -22 72 -42 143 -36 125 -37 127 -66 127 -20 0 -31 -6 -37
-22z"/>
<path d="M2602 1124 c-17 -12 -29 -12 -66 -3 -39 10 -50 9 -82 -8 -63 -33 -92
-123 -64 -199 8 -21 7 -32 -5 -51 -9 -13 -13 -28 -10 -33 9 -15 33 -12 43 6 8
14 14 15 46 4 122 -40 208 86 152 221 -4 9 0 21 9 29 32 27 12 59 -23 34z
m-65 -52 c9 -6 -3 -26 -39 -71 -49 -60 -52 -62 -60 -40 -24 65 47 144 99 111z
m43 -93 c0 -37 -23 -84 -45 -93 -25 -9 -53 -7 -60 4 -7 11 86 129 98 123 4 -2
7 -18 7 -34z"/>
<path d="M2773 1115 c-86 -37 -105 -181 -33 -250 31 -30 112 -47 124 -26 4 6
11 11 17 11 14 0 11 -33 -7 -58 -19 -27 -73 -30 -114 -6 -32 20 -63 12 -58
-13 4 -25 65 -53 114 -53 53 0 105 34 121 80 7 20 12 93 12 171 1 112 -2 139
-15 149 -12 11 -18 11 -31 -2 -13 -14 -19 -14 -42 -2 -32 17 -47 17 -88 -1z
m97 -60 c19 -20 24 -37 24 -75 0 -38 -5 -55 -24 -75 -69 -74 -156 37 -105 135
24 47 69 53 105 15z"/>
<path d="M3085 1123 c-35 -9 -65 -44 -65 -78 0 -37 17 -55 80 -82 60 -26 76
-46 55 -67 -20 -20 -65 -21 -91 -1 -38 29 -74 13 -55 -24 13 -23 61 -41 113
-41 77 0 128 90 77 136 -11 10 -44 30 -72 44 -60 30 -68 45 -32 62 23 10 32 9
57 -5 38 -22 58 -22 58 1 0 26 -12 38 -49 50 -35 12 -43 13 -76 5z"/>
<path d="M3605 1112 c-40 -25 -51 -39 -65 -89 -25 -83 26 -177 102 -189 102
-17 179 103 134 209 -31 74 -112 107 -171 69z m104 -58 c31 -39 29 -117 -4
-149 -13 -14 -33 -25 -45 -25 -11 0 -32 11 -45 25 -20 19 -25 34 -25 75 0 41
5 56 25 75 32 33 68 32 94 -1z"/>
<path d="M4061 1113 c-56 -29 -76 -65 -76 -136 0 -49 5 -69 23 -94 41 -58 137
-68 196 -22 49 38 27 72 -26 39 -18 -11 -45 -20 -59 -20 -33 0 -79 35 -79 61
0 17 8 19 95 19 108 0 113 4 96 67 -22 81 -102 122 -170 86z m94 -58 c44 -43
34 -55 -45 -55 -78 0 -89 13 -48 57 28 30 63 29 93 -2z"/>
<path d="M4312 1118 c-19 -19 -16 -262 3 -278 8 -7 22 -10 30 -6 12 4 15 25
15 103 0 113 12 143 60 143 47 0 60 -30 60 -135 0 -101 9 -126 37 -109 15 9
19 28 21 95 5 141 -22 192 -103 192 -24 0 -50 -5 -58 -11 -11 -10 -17 -9 -27
3 -15 18 -22 19 -38 3z"/>
<path d="M4721 1116 c-8 -9 -11 -56 -9 -141 3 -110 6 -129 21 -139 14 -8 20
-8 27 4 15 23 13 263 -2 278 -16 16 -23 15 -37 -2z"/>
<path d="M5473 1110 c-43 -26 -63 -68 -63 -133 0 -116 97 -182 188 -127 88 54
79 227 -13 266 -46 19 -74 18 -112 -6z m108 -56 c19 -20 24 -37 24 -74 0 -97
-90 -138 -130 -59 -50 97 37 206 106 133z"/>
<path d="M6251 1112 c-94 -48 -95 -218 -1 -264 19 -10 49 -18 65 -18 60 0 134
55 108 81 -9 9 -20 6 -46 -10 -19 -11 -48 -21 -64 -21 -34 0 -73 32 -73 60 0
18 7 20 95 20 69 0 95 3 96 13 5 57 -19 110 -64 137 -40 25 -72 25 -116 2z
m97 -49 c11 -10 23 -28 27 -40 6 -22 4 -23 -69 -23 -42 0 -76 2 -76 5 0 14 31
64 42 68 26 11 56 6 76 -10z"/>
<path d="M2730 595 c0 -57 4 -95 10 -95 6 0 10 11 10 25 0 32 10 32 40 0 12
-13 27 -22 32 -19 6 4 -4 21 -22 39 l-31 32 25 21 c14 11 26 23 26 26 0 12
-28 6 -40 -9 -21 -26 -30 -17 -30 30 0 25 -4 45 -10 45 -6 0 -10 -38 -10 -95z"/>
<path d="M3290 595 c0 -57 4 -95 10 -95 6 0 10 38 10 95 0 57 -4 95 -10 95 -6
0 -10 -38 -10 -95z"/>
<path d="M3632 598 c3 -99 19 -123 28 -41 4 40 9 49 27 51 20 3 22 -2 25 -50
4 -66 22 -70 26 -6 4 55 -22 90 -57 81 -18 -5 -21 -1 -21 26 0 21 -5 31 -15
31 -13 0 -15 -15 -13 -92z"/>
<path d="M4190 595 c0 -52 4 -95 9 -95 5 0 11 12 13 27 l3 27 30 -28 c37 -35
47 -15 11 23 l-26 27 25 24 c13 12 22 27 19 32 -4 5 -16 0 -28 -11 -32 -30
-36 -27 -36 24 0 25 -4 45 -10 45 -6 0 -10 -38 -10 -95z"/>
<path d="M4454 677 c-10 -27 1 -170 14 -175 9 -3 12 20 12 92 0 59 -4 96 -10
96 -6 0 -13 -6 -16 -13z"/>
<path d="M4870 595 c0 -57 4 -95 10 -95 6 0 10 38 10 95 0 57 -4 95 -10 95 -6
0 -10 -38 -10 -95z"/>
<path d="M5540 594 c0 -71 3 -95 12 -92 7 3 15 15 18 27 l5 23 24 -26 c14 -14
28 -26 33 -26 16 0 7 18 -23 48 l-31 30 26 17 c14 10 26 21 26 26 0 14 -22 10
-42 -8 -17 -15 -18 -14 -18 30 0 35 -4 47 -15 47 -12 0 -15 -17 -15 -96z"/>
<path d="M5662 598 c2 -54 7 -93 13 -93 6 0 12 11 13 24 l4 23 29 -28 c39 -37
48 -23 14 22 l-27 36 21 14 c12 8 21 22 21 30 0 12 -6 11 -30 -6 l-30 -21 0
45 c0 35 -4 46 -15 46 -13 0 -15 -15 -13 -92z"/>
<path d="M2031 663 c1 -27 53 -156 64 -160 9 -3 65 138 65 165 0 32 -21 5 -40
-53 -12 -36 -23 -65 -25 -65 -2 0 -13 29 -25 65 -20 61 -41 86 -39 48z"/>
<path d="M2190 665 c0 -8 5 -15 10 -15 6 0 10 7 10 15 0 8 -4 15 -10 15 -5 0
-10 -7 -10 -15z"/>
<path d="M3355 669 c-10 -15 3 -25 16 -12 7 7 7 13 1 17 -6 3 -14 1 -17 -5z"/>
<path d="M4730 665 c0 -9 5 -15 11 -13 6 2 11 8 11 13 0 5 -5 11 -11 13 -6 2
-11 -4 -11 -13z"/>
<path d="M5220 665 c0 -9 5 -15 11 -13 6 2 11 8 11 13 0 5 -5 11 -11 13 -6 2
-11 -4 -11 -13z"/>
<path d="M5485 669 c-10 -15 3 -25 16 -12 7 7 7 13 1 17 -6 3 -14 1 -17 -5z"/>
<path d="M2252 642 c-8 -17 -9 -28 -2 -30 5 -2 10 -28 10 -58 0 -30 5 -54 10
-54 6 0 10 24 10 54 0 30 5 56 10 58 10 3 -9 58 -20 58 -3 0 -11 -12 -18 -28z"/>
<path d="M5402 642 c-8 -17 -9 -28 -2 -30 5 -2 10 -28 10 -58 0 -30 5 -54 10
-54 6 0 10 24 10 54 0 30 5 56 10 58 10 3 -9 58 -20 58 -3 0 -11 -12 -18 -28z"/>
<path d="M2468 628 c-6 -18 5 -128 12 -128 5 0 10 24 12 53 3 45 6 52 26 55
12 2 23 -1 23 -7 1 -6 3 -20 4 -31 1 -11 3 -31 4 -45 0 -14 6 -25 11 -25 16 0
12 106 -5 120 -16 13 -83 20 -87 8z"/>
<path d="M2632 629 c-32 -12 -28 -46 8 -67 46 -26 28 -48 -22 -27 -26 10 -23
-12 3 -25 26 -14 65 -6 73 16 7 19 -17 50 -45 59 -32 10 -22 28 11 22 22 -5
30 -3 30 7 0 18 -30 25 -58 15z"/>
<path d="M3005 631 c-3 -2 -5 -44 -5 -93 0 -67 3 -89 13 -86 6 3 13 16 15 30
2 20 7 24 26 21 13 -3 30 2 39 12 20 19 23 88 5 103 -14 10 -86 21 -93 13z
m73 -33 c22 -22 8 -78 -20 -78 -4 0 -15 11 -23 24 -27 41 10 87 43 54z"/>
<path d="M3436 625 c-15 -7 -22 -22 -24 -49 -4 -50 21 -80 60 -72 32 6 34 3
13 -18 -12 -11 -22 -13 -39 -6 -28 10 -40 2 -25 -17 17 -19 56 -16 79 7 18 18
20 31 18 92 -3 71 -3 71 -32 73 -15 0 -38 -4 -50 -10z m54 -35 c22 -41 -14
-84 -45 -54 -18 18 -19 46 -3 62 18 18 36 15 48 -8z"/>
<path d="M3793 617 c-19 -15 -23 -27 -21 -66 l2 -49 44 2 c26 1 47 7 52 16 11
17 11 19 14 76 2 40 2 40 -33 40 -19 -1 -45 -9 -58 -19z m51 -5 c3 -5 -8 -24
-24 -43 l-29 -34 -1 27 c0 38 39 74 54 50z m16 -66 c-4 -12 -17 -22 -29 -24
-26 -4 -26 2 0 40 24 33 43 22 29 -16z"/>
<path d="M3977 632 c-26 -2 -42 -10 -53 -27 -31 -47 7 -115 57 -102 24 6 25
-9 2 -22 -10 -5 -26 -5 -40 0 -17 6 -23 5 -23 -6 0 -18 41 -29 70 -20 12 4 25
18 31 32 11 29 12 140 2 145 -5 2 -25 2 -46 0z m21 -58 c4 -38 -20 -63 -43
-44 -15 13 -21 61 -8 74 4 4 16 6 28 4 14 -2 21 -12 23 -34z"/>
<path d="M4080 622 c-27 -22 -18 -46 21 -62 16 -7 28 -18 26 -24 -4 -12 -22
-12 -49 -1 -13 5 -18 2 -18 -9 0 -21 42 -31 70 -16 29 15 23 51 -12 68 -38 18
-36 36 3 28 35 -7 37 12 1 25 -14 6 -28 3 -42 -9z"/>
<path d="M4970 632 c-44 -13 -55 -90 -18 -116 29 -21 51 -20 71 2 42 46 2 132
-53 114z m38 -34 c16 -16 15 -44 -3 -62 -31 -30 -67 13 -45 54 12 23 30 26 48
8z"/>
<path d="M5085 616 c-33 -49 6 -117 57 -101 15 5 19 3 16 -6 -3 -9 -20 -14
-41 -14 -46 0 -49 -21 -5 -30 27 -6 36 -3 55 19 19 22 22 36 20 89 l-2 62 -42
3 c-35 3 -44 -1 -58 -22z m70 -36 c0 -31 -3 -35 -25 -35 -19 0 -26 6 -28 23
-5 36 5 54 30 50 19 -2 23 -9 23 -38z"/>
<path d="M5303 629 c-35 -13 -28 -44 13 -69 27 -15 34 -24 26 -32 -9 -9 -18
-8 -36 0 -16 7 -28 8 -31 2 -11 -18 42 -34 70 -22 35 16 32 48 -5 67 -40 21
-39 39 1 30 23 -5 30 -4 27 5 -6 19 -40 29 -65 19z"/>
<path d="M5487 633 c-11 -10 -8 -133 3 -133 6 0 10 30 10 70 0 70 -1 76 -13
63z"/>
<path d="M2190 565 c0 -37 4 -65 10 -65 6 0 10 28 10 65 0 37 -4 65 -10 65 -6
0 -10 -28 -10 -65z"/>
<path d="M2336 608 c-22 -31 -20 -64 4 -88 24 -24 49 -25 76 -6 24 18 13 31
-14 17 -24 -13 -52 -5 -52 15 0 10 13 14 46 14 42 0 45 1 38 23 -10 35 -24 47
-55 47 -17 0 -34 -8 -43 -22z m72 -15 c2 -9 -7 -13 -27 -13 -30 0 -39 9 -24
24 11 10 46 3 51 -11z"/>
<path d="M2860 611 c-31 -58 2 -111 68 -109 l32 1 0 62 0 62 -45 1 c-35 2 -46
-2 -55 -17z m70 -16 c15 -18 6 -61 -15 -68 -32 -13 -59 45 -33 71 16 16 33 15
48 -3z"/>
<path d="M3157 612 c-23 -25 -21 -68 3 -92 24 -24 49 -25 76 -6 24 18 13 31
-14 17 -24 -13 -52 -5 -52 15 0 10 12 14 39 14 47 0 54 8 38 41 -16 31 -66 38
-90 11z m67 -17 c4 -11 -2 -15 -24 -15 -29 0 -38 9 -23 23 12 12 41 7 47 -8z"/>
<path d="M3350 565 c0 -37 4 -65 10 -65 6 0 10 28 10 65 0 37 -4 65 -10 65 -6
0 -10 -28 -10 -65z"/>
<path d="M4322 618 c-20 -20 -15 -82 8 -103 45 -41 106 20 84 83 -7 21 -16 28
-44 30 -19 2 -41 -3 -48 -10z m70 -33 c9 -21 8 -28 -7 -45 -22 -24 -55 -11
-55 23 0 48 43 63 62 22z"/>
<path d="M4522 610 c-31 -50 5 -118 56 -105 15 3 31 11 36 16 15 14 -1 22 -22
10 -24 -13 -52 -5 -52 15 0 10 12 14 40 14 35 0 40 3 40 23 0 31 -18 47 -55
47 -19 0 -35 -7 -43 -20z m72 -15 c4 -11 -2 -15 -24 -15 -29 0 -38 9 -23 23
12 12 41 7 47 -8z"/>
<path d="M4730 565 c0 -37 4 -65 10 -65 6 0 10 28 10 65 0 37 -4 65 -10 65 -6
0 -10 -28 -10 -65z"/>
<path d="M5220 565 c0 -37 4 -65 10 -65 6 0 10 28 10 65 0 37 -4 65 -10 65 -6
0 -10 -28 -10 -65z"/>
</g>
</svg>
